# xmcd CD database file
#
# Track frame offsets:
#	150
#	20059
#	43419
#	55826
#	68963
#	89556
#	105285
#	118578
#	132591
#	152253
#	169718
#	181654
#	193359
#	205680
#	218629
#	233712
#	252052
#
# Disc length: 3438 seconds
#
# Revision: 0
# Processed by: cddbd v1.5.2PL0 Copyright (c) Steve Scherf et al.
# Submitted via: CDex 1.51
#
DISCID=ea0d6c11
DTITLE=Col Millington - Australian Made
DYEAR=1900
DGENRE=Country
TTITLE0=Col Millington - My Didgeridoo
TTITLE1=Col Millington - 5 Mates Crossing
TTITLE2=Col Millington - Thunderbolt
TTITLE3=Col Millington - Indian Pacific
TTITLE4=Col Millington - Molly Malloy
TTITLE5=Col Millington - Ben Hall
TTITLE6=Col Millington - Life's A Bastard
TTITLE7=Col Millington - Wandin Valley
TTITLE8=Col Millington - Australia Is My Home
TTITLE9=Col Millington - Ned Kelly
TTITLE10=Col Millington - Birdsville Pub
TTITLE11=Col Millington - Jindabyne
TTITLE12=Col Millington - Albury Wondonga Is My Home
TTITLE13=Col Millington - Bordertown  
TTITLE14=Col Millington - The Heart Of A Nation
TTITLE15=Col Millington - National Route 1
TTITLE16=Col Millington - Advance Australia Fair
EXTD=
EXTT0=
EXTT1=
EXTT2=
EXTT3=
EXTT4=
EXTT5=
EXTT6=
EXTT7=
EXTT8=
EXTT9=
EXTT10=
EXTT11=
EXTT12=
EXTT13=
EXTT14=
EXTT15=
EXTT16=
PLAYORDER=
